<svg xmlns="http://www.w3.org/2000/svg" viewBox="0 0 800 1000" preserveAspectRatio="xMidYMid slice" role="img" aria-label="Abendstimmung auf der Vereinswiese: beleuchtetes Festzelt unter Sternen">
  <defs>
    <linearGradient id="dusk" x1="0" y1="0" x2="0" y2="1"><stop offset="0" stop-color="#0c2b24"/><stop offset=".45" stop-color="#18594a"/><stop offset=".66" stop-color="#e59a4a"/><stop offset=".74" stop-color="#f6c453"/></linearGradient>
    <radialGradient id="glow" cx=".5" cy=".5" r=".5"><stop offset="0" stop-color="#fde68a" stop-opacity=".8"/><stop offset="1" stop-color="#fde68a" stop-opacity="0"/></radialGradient>
  </defs>
  <rect width="800" height="1000" fill="url(#dusk)"/>
  <circle cx="80" cy="90" r="2" fill="#fff" opacity="0.8"/><circle cx="180" cy="200" r="1.6" fill="#fff" opacity="0.6"/><circle cx="300" cy="60" r="2.2" fill="#fff" opacity="0.9"/><circle cx="420" cy="170" r="1.5" fill="#fff" opacity="0.6"/><circle cx="520" cy="80" r="2" fill="#fff" opacity="0.8"/><circle cx="700" cy="260" r="1.8" fill="#fff" opacity="0.7"/><circle cx="130" cy="330" r="1.5" fill="#fff" opacity="0.5"/><circle cx="360" cy="290" r="1.4" fill="#fff" opacity="0.5"/><circle cx="600" cy="350" r="1.6" fill="#fff" opacity="0.5"/><circle cx="740" cy="70" r="2.2" fill="#fff" opacity="0.9"/><circle cx="250" cy="140" r="1.2" fill="#fff" opacity="0.5"/><circle cx="470" cy="40" r="1.6" fill="#fff" opacity="0.7"/><circle cx="60" cy="240" r="1.4" fill="#fff" opacity="0.5"/><circle cx="660" cy="170" r="1.3" fill="#fff" opacity="0.6"/>
  <circle cx="620" cy="170" r="84" fill="#fdf3c8" opacity=".14"/><circle cx="620" cy="170" r="48" fill="#fdf3c8"/>
  <rect y="900" width="800" height="100" fill="#0b2f26"/>
  <g transform="translate(0 -85)">
  <path d="M0 700 Q160 610 360 680 T800 650 V1000 H0Z" fill="#1d6b58"/>
  <path d="M0 760 Q220 690 430 750 T800 730 V1000 H0Z" fill="#14503f"/>
  <path d="M0 820 Q260 780 520 825 T800 810 V1000 H0Z" fill="#0e3a2f"/>
  <rect y="880" width="800" height="120" fill="#0b2f26"/>

  <rect x="86" y="520" width="8" height="270" fill="#6b4f35"/><rect x="706" y="520" width="8" height="270" fill="#6b4f35"/>
  <path d="M90 560 Q400 650 710 560" stroke="#6b4f35" stroke-width="2.5" fill="none"/>
  <circle cx="90" cy="560" r="14" fill="#fde68a" opacity=".22"/><circle cx="90" cy="560" r="6" fill="#fde68a"/><circle cx="152" cy="577" r="14" fill="#fde68a" opacity=".22"/><circle cx="152" cy="577" r="6" fill="#fde68a"/><circle cx="214" cy="589" r="14" fill="#fde68a" opacity=".22"/><circle cx="214" cy="589" r="6" fill="#fde68a"/><circle cx="276" cy="599" r="14" fill="#fde68a" opacity=".22"/><circle cx="276" cy="599" r="6" fill="#fde68a"/><circle cx="338" cy="604" r="14" fill="#fde68a" opacity=".22"/><circle cx="338" cy="604" r="6" fill="#fde68a"/><circle cx="400" cy="606" r="14" fill="#fde68a" opacity=".22"/><circle cx="400" cy="606" r="6" fill="#fde68a"/><circle cx="462" cy="604" r="14" fill="#fde68a" opacity=".22"/><circle cx="462" cy="604" r="6" fill="#fde68a"/><circle cx="524" cy="599" r="14" fill="#fde68a" opacity=".22"/><circle cx="524" cy="599" r="6" fill="#fde68a"/><circle cx="586" cy="589" r="14" fill="#fde68a" opacity=".22"/><circle cx="586" cy="589" r="6" fill="#fde68a"/><circle cx="648" cy="577" r="14" fill="#fde68a" opacity=".22"/><circle cx="648" cy="577" r="6" fill="#fde68a"/><circle cx="710" cy="560" r="14" fill="#fde68a" opacity=".22"/><circle cx="710" cy="560" r="6" fill="#fde68a"/>

  <circle cx="400" cy="722" r="190" fill="url(#glow)"/>
  <g transform="translate(400 800) scale(1.18)"><rect x="-130" y="-124" width="260" height="124" fill="#f1dcc6"/><rect x="-110" y="-124" width="20" height="124" fill="#d9772f"/><rect x="-70" y="-124" width="20" height="124" fill="#d9772f"/><rect x="-30" y="-124" width="20" height="124" fill="#d9772f"/><rect x="10" y="-124" width="20" height="124" fill="#d9772f"/><rect x="50" y="-124" width="20" height="124" fill="#d9772f"/><rect x="90" y="-124" width="20" height="124" fill="#d9772f"/><polygon points="-150,-124 0,-218 150,-124" fill="#9c3d15"/><polygon points="0,-218 150,-124 0,-124" fill="#7e2f10" opacity=".55"/><path d="M-150 -124 a20 20 0 0 0 40 0z" fill="#9c3d15"/><path d="M-110 -124 a20 20 0 0 0 40 0z" fill="#9c3d15"/><path d="M-70 -124 a20 20 0 0 0 40 0z" fill="#9c3d15"/><path d="M-30 -124 a20 20 0 0 0 40 0z" fill="#9c3d15"/><path d="M10 -124 a20 20 0 0 0 40 0z" fill="#9c3d15"/><path d="M50 -124 a20 20 0 0 0 40 0z" fill="#9c3d15"/><path d="M90 -124 a20 20 0 0 0 40 0z" fill="#9c3d15"/><path d="M130 -124 a20 20 0 0 0 40 0z" fill="#9c3d15"/><path d="M-32 0V-68a32 32 0 0 1 64 0V0z" fill="#fcd877"/><rect x="-4" y="-240" width="8" height="24" fill="#8a6a4a"/><polygon points="4,-240 30,-232 4,-224" fill="#1f6f5c"/></g>

  <g transform="translate(150 835) scale(.9)"><polygon points="32,11 51,21.5 32,32 13,21.5" fill="#ffffff"/><polygon points="13,21.5 32,32 32,53 13,42.5" fill="#cfeae1"/><polygon points="51,21.5 32,32 32,53 51,42.5" fill="#9fd3c3"/></g><g transform="translate(186 835) scale(.9)"><polygon points="32,11 51,21.5 32,32 13,21.5" fill="#ffffff"/><polygon points="13,21.5 32,32 32,53 13,42.5" fill="#cfeae1"/><polygon points="51,21.5 32,32 32,53 51,42.5" fill="#9fd3c3"/></g><g transform="translate(168 812) scale(.9)"><polygon points="32,11 51,21.5 32,32 13,21.5" fill="#ffffff"/><polygon points="13,21.5 32,32 32,53 13,42.5" fill="#cfeae1"/><polygon points="51,21.5 32,32 32,53 51,42.5" fill="#9fd3c3"/></g>
  <g opacity=".95">
    <rect x="560" y="800" width="170" height="11" rx="3" fill="#8a6a4a"/><rect x="574" y="811" width="8" height="38" fill="#5f4630"/><rect x="708" y="811" width="8" height="38" fill="#5f4630"/>
    <rect x="552" y="824" width="186" height="9" rx="3" fill="#a07448"/>
    <rect x="598" y="784" width="16" height="16" rx="3" fill="#fde68a"/><rect x="660" y="784" width="16" height="16" rx="3" fill="#fde68a"/>
  </g>
  <circle cx="110" cy="700" r="2.4" fill="#fde68a" opacity=".85"/><circle cx="250" cy="640" r="2.4" fill="#fde68a" opacity=".85"/><circle cx="560" cy="690" r="2.4" fill="#fde68a" opacity=".85"/><circle cx="690" cy="640" r="2.4" fill="#fde68a" opacity=".85"/><circle cx="640" cy="760" r="2.4" fill="#fde68a" opacity=".85"/><circle cx="60" cy="760" r="2.4" fill="#fde68a" opacity=".85"/>
  <g transform="translate(400 430) scale(1.267)"><circle r="30" fill="#e8833a" stroke="#fff" stroke-width="5"/><g fill="none" stroke="#fff" stroke-width="4" stroke-linecap="round" stroke-linejoin="round"><path d="M-14 -7H14M7 -14L14 -7L7 0"/><path d="M14 9H-14M-7 2L-14 9L-7 16"/></g></g>
  </g>
</svg>
